<svg xmlns="http://www.w3.org/2000/svg" viewBox="0 0 470 120" width="470" height="120">
  <title>DML lockup — Deep soil</title>
  <g transform="translate(0,12) scale(0.6154) translate(-22,-22)"><defs>
    <clipPath id="ldisc"><circle cx="100" cy="100" r="76"></circle></clipPath>
    <mask id="lseams">
      <rect x="0" y="0" width="200" height="200" fill="white"></rect>
      <path d="M 14 84 C 58 68, 122 98, 186 78" fill="none" stroke="black" stroke-width="5" stroke-linecap="round"></path>
      <path d="M 14 124 C 70 138, 134 112, 186 126" fill="none" stroke="black" stroke-width="5" stroke-linecap="round"></path>
    </mask>
  </defs>
  <g clip-path="url(#ldisc)" mask="url(#lseams)">
    <circle cx="100" cy="100" r="76" fill="#2B5D45"></circle>
    <path d="M 14 84 C 58 68, 122 98, 186 78 L 186 188 L 14 188 Z" fill="#3E7775"></path>
    <path d="M 14 124 C 70 138, 134 112, 186 126 L 186 188 L 14 188 Z" fill="#A4713D"></path>
  </g></g>
  <line x1="126" y1="18" x2="126" y2="102" stroke="rgba(70,85,85,0.28)" stroke-width="1"></line>
  <text x="154" y="60" font-family="&#39;DM Serif Display&#39;, Georgia, serif" font-size="46" letter-spacing="0.7" fill="#356259">DML</text>
  <text x="154" y="84" font-family="&#39;DM Sans&#39;, &#39;Segoe UI&#39;, sans-serif" font-size="11" font-weight="500" letter-spacing="1.85" fill="#465555">DATA AND MODELLING INFRASTRUCTURE</text>
  <text x="154" y="102" font-family="&#39;DM Sans&#39;, &#39;Segoe UI&#39;, sans-serif" font-size="11" font-weight="500" letter-spacing="1.85" fill="#465555">FOR LIVING LABS</text>
</svg>